<svg xmlns="http://www.w3.org/2000/svg" width="1920" height="1280" viewBox="0 0 1920 1280">
  <defs>
    <style>
      .cls-1 {
        fill-rule: evenodd;
      }
    </style>
  </defs>
  <path id="Color_Fill_1" data-name="Color Fill 1" class="cls-1" d="M0,0H1920q-0.495,487.952-1,976-75.99-39.5-152-79l-15-1q-5.505-4.5-11-9c-16.04-8.834-31.81-12.7-47-22-21.87-13.395-23.1-41.489-44-56-15.73-10.921-55.46-22.542-76-27l-28-2q-10.005-5-20-10c-23.11-5.694-43.8,5-62,6-1.59-16.591-10.09-14.761-7-35-26.1-24.893-36.84-19.563-83-19-0.33-2-.67-4-1-6-6.86-14.782-32.77-14.328-51-18-50.25-10.118-133.89-9.537-184,0-20.3,3.863-48.18,1.188-57,16-3.96,9.851,1.54,87.875,3,100-12.07.408-27.24,11.037-31,20h-1c-1.56-21.392-16.21-13.563-32-21-5.81-2.739-8.12-8.7-16-11-0.59-28.661-28.634-61.711-50-70-13.287-5.154-34.971-.735-43-10l7-11,10-1c2.951-7.364,5.691-9.994,13-13-0.5-11.419,8.752-26.818,5-34-11.06-20.569-22.907-11.03-36-20l-10-11-42-2c-43.743-4.825-123.322-3.617-165,13-21.739,8.667-37.331,26.673-50,45l-37,31c-8.673,7.225-11.727,19.254-19,28l-24,24c-5.234,6.459-8.71,28.861-13,33H292l-50,7c-24.171,9.246-42.561,30.361-64,42-34.984,18.992-66.14,39.029-100,60-23.41,14.5-48.144,45.887-78,51V0Z"/>
</svg>
