<svg xmlns="http://www.w3.org/2000/svg" width="1920" height="1280" viewBox="0 0 1920 1280">
  <defs>
    <style>
      .cls-1 {
        fill-rule: evenodd;
      }
    </style>
  </defs>
  <path id="Color_Fill_1" data-name="Color Fill 1" class="cls-1" d="M1804,648h116v632H0V703c0-10.614-3.506-35.625,2-42,6.671-5.336,47.415-.976,64-1l48-2,38,6c17.688-1.067,39.172-5.952,56-6q3,108.988,6,218,0.5,18,1,36c3.474,14.241,13.683,4.379,7,28,22.686,0.3,39.834,9.4,56,10,10.355,0.386,20.534-9.631,34-6,19.2,5.178,57.76,6.248,80,2s50.329,1.757,70-2c36.313-6.936,80.272,4.443,114-2,28.62-5.467,63.955,2.976,90-2h62c47.887-.325,106.965,1.215,152-7,25.459-19.672,3.2-43.881,9-69,9.366-40.58,7.26-97.743,7-148a261.565,261.565,0,0,1,56,5l3,18,9,7v38c0.419,29.374.242,67.028,4,92,1.6,10.651-5.343,20.886-3,34,21.546,10.884,65.6,2.269,95,2,0.33,3.333.67,6.667,1,10,10.24,0.638,17.79,3.2,27,6,0.33-2.666.67-5.334,1-8h4v2c9.89,28.245-3.85,129.17-3,162,0.55,21.11-2.36,61.8,7,73,8.78,10.5,30.31,12.56,49,10l20,3c19.53-4.71,18.08-33.1,14-54-3.65-18.71,5.51-42.36,0-62-3.11-11.1-10.16-94.731-6-108,3.42-10.9,6.12-17.568,6-36l88-4c30.83-5.86,65.07,1.117,92-4l40,2c6.58-1.151,13.49-5.927,24-4l16,2c15.23-2.833,38.24,1.386,56-2,10.99-2.1,36.63-5.414,44-5l107,3,42-2c14.54,2.115,52.96,7.71,63,4q7.995-6.5,16-13c36.13-15.5,21.24-22.106,24-58,5.58-1.383,5.82-1.021,6-8,2.64-8.225.02-20.379,2-31C1807.96,747.191,1804.04,695.706,1804,648Z"/>
</svg>
