<svg xmlns="http://www.w3.org/2000/svg" width="1920" height="1280" viewBox="0 0 1920 1280">
  <defs>
    <style>
      .cls-1 {
        fill-rule: evenodd;
      }
    </style>
  </defs>
  <path id="Color_Fill_1" data-name="Color Fill 1" class="cls-1" d="M0,0H1920V648H1806c-0.02-45.023,9.56-122.1-13-147-15.86-17.506-131.98-27.828-167-35-132.31-27.094-273.28-35.032-408-62-18.03-3.609-34.01-.229-54-4-44.84-8.46-101.68-7.994-150-8-17.694,0-63.039-5.879-71,5,4.763,15.975.273,40.315,1,57,2.516,57.748,2.1,131.694,2,196-18.932.03-32.3,0.27-50,0V590q-2-10-4-20c2.235-36.933,2-81.8,2-122q-0.5-30-1-60l-3-1c-25.676-10.105-84.772,6.773-107-6-4.028-12.436-10.491-30.285-7-49,2.666-14.292,8.653-43.639,6-60q-4-18-8-36c-6.594-33.632,2.2-55.476-26-67-5.284-2.16-12.644-6.969-22-5-52.488,11.045-33.234,103.994-42,152-3,16.458,7.92,53.339-5,65-4.825,6.9-90.849,3-117,3H312c-36.888,0-79.809-7.9-107-2l-6,9c-0.888,2.16,6.363,47.446,7,50-9.55,6.523-2,40.6-2,55q2,80.993,4,162c-9.153.05-12.79,2.54-18,4-15.827,4.436-32.8-3.651-48-5-17.07-1.515-49.064,2.864-72,3-26.2.155-49.844-4.433-70,0V0Z"/>
</svg>
